<svg width="32" height="25" viewBox="0 0 32 25" fill="none" xmlns="http://www.w3.org/2000/svg">
  <path d="M20.0234 23.2886C19.5646 24.0917 18.7009 24.5735 17.7562 24.5735C16.8115 24.5735 15.9478 24.0917 15.489 23.2886L4.18006 3.88133C3.72123 3.07827 3.72123 2.08783 4.18006 1.28477C4.6389 0.48171 5.50257 -0.00012207 6.44723 -0.00012207H29.0382C29.9828 -0.00012207 30.8466 0.48171 31.3054 1.28477C31.7642 2.08783 31.7642 3.07827 31.3054 3.88133L20.0234 23.2886Z" fill="#2E395D"/>
  <path d="M12.4287 23.5943C12.0924 24.1714 11.4759 24.5288 10.8034 24.5288C10.1308 24.5288 9.51425 24.1714 9.17796 23.5943L1.05104 9.79701C0.714757 9.21984 0.714757 8.53272 1.05104 7.95554C1.38733 7.37836 2.00387 7.02106 2.67644 7.02106H18.9022C19.5748 7.02106 20.1913 7.37836 20.5276 7.95554C20.8639 8.53272 20.8639 9.21984 20.5276 9.79701L12.4287 23.5943Z" fill="url(#paint0_linear)"/>
  <path d="M0.999384 13.5773C0.043707 14.1267 -0.283732 15.3435 0.268029 16.295L4.46404 23.5315C4.62416 23.8076 4.84072 24.0311 5.09083 24.1958C5.15479 24.2436 5.22232 24.288 5.29331 24.3289C6.24899 24.8783 7.47101 24.5522 8.02277 23.6007L12.2188 16.3642C12.7705 15.4126 12.4431 14.1959 11.4874 13.6465C10.5318 13.0971 9.30973 13.4231 8.75797 14.3747L7.6469 16.2908C7.03125 17.3526 5.49567 17.3526 4.88002 16.2908L3.72884 14.3055C3.17708 13.3539 1.95506 13.0279 0.999384 13.5773Z" fill="url(#paint1_linear)"/>
  <defs>
    <linearGradient id="paint0_linear" x1="5.03699" y1="16.7861" x2="18.1314" y2="8.61585" gradientUnits="userSpaceOnUse">
      <stop stop-color="#3A4B82"/>
      <stop offset="1" stop-color="#8A94B2"/>
    </linearGradient>
    <linearGradient id="paint1_linear" x1="2.26881" y1="19.7458" x2="11.2273" y2="14.9675" gradientUnits="userSpaceOnUse">
      <stop stop-color="#FF5555"/>
      <stop offset="1" stop-color="#FFA582"/>
    </linearGradient>
  </defs>
</svg> 