<svg width="214" height="25" viewBox="0 0 214 25" fill="none" xmlns="http://www.w3.org/2000/svg">
<g clip-path="url(#clip0_138_1829)">
<path d="M156.691 14.5521L163.507 7.40538H167.499L159.193 16.2302L159.19 16.2257L156.691 18.8904V23.3739H153.382V0.078064H156.691V14.5521Z" fill="#2E395D"/>
<path fill-rule="evenodd" clip-rule="evenodd" d="M109.358 7.06327C107.248 7.06327 105.416 7.87513 103.873 9.50032C102.33 11.1255 101.552 13.0737 101.552 15.3816C101.552 17.6894 102.316 19.6537 103.873 21.2775C105.431 22.9012 107.248 23.6984 109.358 23.6984C110.297 23.6943 111.226 23.4944 112.084 23.1111C112.992 22.7206 113.578 22.3962 113.854 22.1525C114.129 21.9088 114.34 21.6974 114.486 21.5506L114.486 23.3871H117.812V0.0941784H114.486V9.25662L114.265 9.01291C114.06 8.81542 113.837 8.63613 113.601 8.47705C113.264 8.2363 112.912 8.019 112.546 7.82669C112.087 7.5909 111.603 7.41101 111.102 7.29083C110.532 7.14135 109.946 7.06489 109.358 7.06327ZM109.683 20.7255C108.418 20.7255 107.299 20.2057 106.326 19.1663C105.365 18.1523 104.84 16.7982 104.866 15.3977C104.84 14.0016 105.365 12.652 106.326 11.6438C107.299 10.6043 108.418 10.0846 109.683 10.0846C110.948 10.0846 112.067 10.6043 113.04 11.6438C114.001 12.652 114.526 14.0016 114.5 15.3977C114.526 16.7982 114.001 18.1524 113.04 19.1663C112.068 20.2057 110.949 20.7255 109.683 20.7255Z" fill="#2E395D"/>
<path fill-rule="evenodd" clip-rule="evenodd" d="M65.4716 21.229C63.8163 19.5716 63.0047 17.6395 63.0047 15.3977H62.9974C62.9974 13.1559 63.8192 11.2063 65.4716 9.5488C67.1241 7.89131 69.0714 7.0633 71.3107 7.0633C73.5499 7.0633 75.4826 7.89131 77.1365 9.5488C78.7904 11.2063 79.6181 13.1559 79.6181 15.3977C79.6181 17.6395 78.7919 19.5716 77.1365 21.229C75.4811 22.8865 73.547 23.7145 71.3107 23.7145C69.0743 23.7145 67.127 22.8865 65.4716 21.229ZM75.9253 17.4296C76.1789 16.7832 76.3023 16.0925 76.2884 15.3977C76.3144 13.9875 75.7825 12.6245 74.8097 11.6086C73.8214 10.5853 72.6697 10.0656 71.3063 10.0656C69.9429 10.0656 68.7751 10.5677 67.7853 11.6086C66.7956 12.6494 66.3081 13.9003 66.3081 15.3948C66.3081 16.8893 66.7956 18.1211 67.7853 19.1634C68.7751 20.2058 69.9618 20.7064 71.3077 20.7064C72.6536 20.7064 73.8214 20.2028 74.8111 19.1634C75.293 18.6654 75.6717 18.076 75.9253 17.4296Z" fill="#2E395D"/>
<path d="M83.266 7.40391H86.5913L86.5781 9.07755L86.7898 8.86615C86.9856 8.69178 87.1912 8.52903 87.4058 8.37874C87.7247 8.15147 88.0599 7.94831 88.4087 7.77094C88.8403 7.56312 89.2917 7.39982 89.756 7.28353C90.2909 7.14114 90.842 7.07006 91.3953 7.07212C93.3266 7.07212 94.8827 7.71369 96.084 8.98066C97.2854 10.2476 97.8854 11.9374 97.8854 14.0809V23.3901H94.5586V14.0809C94.5586 12.9284 94.1863 11.9697 93.4565 11.2063C93.1068 10.8393 92.6855 10.5489 92.2191 10.3531C91.7527 10.1574 91.2511 10.0605 90.7457 10.0685C89.4801 10.0685 88.4568 10.4913 87.7109 11.3032C86.965 12.1151 86.5913 13.2631 86.5913 14.7312V23.374H83.266V7.40391Z" fill="#2E395D"/>
<path fill-rule="evenodd" clip-rule="evenodd" d="M137.788 14.8942L137.609 16.5502H125.13C125.312 17.698 125.907 18.7385 126.802 19.4747C127.717 20.2916 128.905 20.7323 130.128 20.7093C131.038 20.7158 131.935 20.498 132.741 20.0751C133.553 19.6538 134.121 19.2471 134.445 18.8404L134.948 18.2238L137.106 20.3805C137.057 20.454 136.989 20.5376 136.902 20.6442C136.875 20.6781 136.845 20.7144 136.814 20.7534C136.545 21.0428 136.252 21.309 135.938 21.5491C135.498 21.9215 135.026 22.2532 134.527 22.5401C133.915 22.8836 133.266 23.1545 132.592 23.3475C131.792 23.5886 130.961 23.7088 130.125 23.7043C127.872 23.7043 125.926 22.8758 124.286 21.2188C123.492 20.4406 122.863 19.5078 122.439 18.4771C122.016 17.4465 121.805 16.3397 121.821 15.2245C121.821 12.9827 122.632 11.0727 124.222 9.47393C125.812 7.87516 127.727 7.0633 129.966 7.0633C132.205 7.0633 134.055 7.81056 135.548 9.30509C137.042 10.7996 137.788 12.6524 137.788 14.8942ZM133.001 10.9787C132.189 10.2638 131.184 9.90555 129.95 9.90555C128.749 9.90555 127.743 10.2657 126.931 10.9861C126.113 11.709 125.535 12.6673 125.276 13.7314H134.51C134.346 12.6634 133.811 11.6883 133.001 10.9787Z" fill="#2E395D"/>
<path d="M150.395 10.2315V7.0633H149.568C149.009 7.06667 148.453 7.14316 147.914 7.29085C147.45 7.4069 146.998 7.57021 146.567 7.77826C145.987 8.07256 145.442 8.4321 144.943 8.84998L144.733 9.06139V7.4039H141.406V23.3739H144.733V14.7312C144.733 13.2631 145.123 12.115 145.869 11.3032C146.615 10.4913 147.621 10.0685 148.886 10.0685C149.394 10.0687 149.9 10.1234 150.395 10.2315Z" fill="#2E395D"/>
<path d="M170.946 7.40395H174.271V23.374H170.946V7.40395Z" fill="#2E395D"/>
<path d="M182.298 7.40391H178.971V23.374H182.298V14.7312C182.298 13.2631 182.67 12.1151 183.416 11.3032C184.162 10.4913 185.186 10.0685 186.451 10.0685C186.957 10.0605 187.458 10.1574 187.925 10.3531C188.391 10.5489 188.812 10.8393 189.162 11.2063C189.892 11.9697 190.264 12.9284 190.264 14.0809V23.3901H193.591V14.0809C193.591 11.9374 192.991 10.2476 191.79 8.98066C190.588 7.71369 189.032 7.07212 187.101 7.07212C186.548 7.07006 185.996 7.14114 185.462 7.28353C184.997 7.39982 184.546 7.56312 184.114 7.77094C183.765 7.94615 183.429 8.14683 183.108 8.3714C182.894 8.52208 182.688 8.68481 182.492 8.8588L182.29 9.07755L182.298 7.40391Z" fill="#2E395D"/>
<path fill-rule="evenodd" clip-rule="evenodd" d="M199.577 9.50032C201.12 7.87513 202.952 7.06327 205.062 7.06327C205.648 7.06551 206.231 7.14196 206.799 7.29083C207.299 7.41101 207.784 7.5909 208.242 7.82669C208.609 8.019 208.961 8.2363 209.298 8.47705C209.534 8.63661 209.757 8.81586 209.963 9.01291L210.19 9.25662V0.0941784H213.516V23.3871H210.19V21.5505L210.189 21.5508C210.043 21.6976 209.833 21.9089 209.558 22.1525C209.282 22.3962 208.696 22.7206 207.788 23.1111C206.93 23.4944 206.001 23.6943 205.062 23.6984C202.952 23.6984 201.135 22.9012 199.577 21.2775C198.02 19.6537 197.258 17.6894 197.258 15.3816C197.258 13.0737 198.034 11.1255 199.577 9.50032ZM202.03 19.1663C203.003 20.2057 204.122 20.7255 205.387 20.7255H205.389C206.654 20.7255 207.772 20.2057 208.745 19.1663C209.705 18.1524 210.23 16.7982 210.204 15.3977C210.23 14.0016 209.705 12.652 208.745 11.6438C207.771 10.6043 206.652 10.0846 205.387 10.0846C204.122 10.0846 203.003 10.6043 202.03 11.6438C201.069 12.652 200.544 14.0016 200.57 15.3977C200.544 16.7982 201.069 18.1523 202.03 19.1663Z" fill="#2E395D"/>
<path d="M45.495 24.1741L47.7372 20.0854L41.7113 7.40535H37.4824L45.495 24.1741Z" fill="#2E395D"/>
<path d="M55.9993 20.1265L53.7148 24.1741L45.7023 7.40535H49.9341L55.9993 20.1265Z" fill="#2E395D"/>
<path d="M58.4065 14.4537L61.8982 7.40535H57.935L54.379 14.4537H58.4065Z" fill="#2E395D"/>
<path d="M168.002 23.374L163.473 17.0377H159.774L164.335 23.374H168.002Z" fill="#2E395D"/>
<path d="M172.646 4.53059C172.814 4.53059 172.968 4.44329 173.05 4.29777L175.063 0.781353C175.145 0.63584 175.145 0.456383 175.063 0.310878C174.981 0.165365 174.827 0.078064 174.659 0.078064H170.628C170.459 0.078064 170.305 0.165365 170.223 0.310878C170.142 0.456383 170.142 0.63584 170.223 0.781353L172.241 4.29777C172.323 4.44329 172.477 4.53059 172.646 4.53059Z" fill="#2E395D"/>
<path d="M20.0234 23.2886C19.5646 24.0917 18.7009 24.5735 17.7562 24.5735C16.8115 24.5735 15.9478 24.0917 15.489 23.2886L4.18006 3.88133C3.72123 3.07827 3.72123 2.08783 4.18006 1.28477C4.6389 0.48171 5.50257 -0.00012207 6.44723 -0.00012207H29.0382C29.9828 -0.00012207 30.8466 0.48171 31.3054 1.28477C31.7642 2.08783 31.7642 3.07827 31.3054 3.88133L20.0234 23.2886Z" fill="#2E395D"/>
<path d="M12.4287 23.5943C12.0924 24.1714 11.4759 24.5288 10.8034 24.5288C10.1308 24.5288 9.51425 24.1714 9.17796 23.5943L1.05104 9.79701C0.714757 9.21984 0.714757 8.53272 1.05104 7.95554C1.38733 7.37836 2.00387 7.02106 2.67644 7.02106H18.9022C19.5748 7.02106 20.1913 7.37836 20.5276 7.95554C20.8639 8.53272 20.8639 9.21984 20.5276 9.79701L12.4287 23.5943Z" fill="url(#paint0_linear_138_1829)"/>
<path d="M0.999384 13.5773C0.043707 14.1267 -0.283732 15.3435 0.268029 16.295L4.46404 23.5315C4.62416 23.8076 4.84072 24.0311 5.09083 24.1958C5.15479 24.2436 5.22232 24.288 5.29331 24.3289C6.24899 24.8783 7.47101 24.5522 8.02277 23.6007L12.2188 16.3642C12.7705 15.4126 12.4431 14.1959 11.4874 13.6465C10.5318 13.0971 9.30973 13.4231 8.75797 14.3747L7.6469 16.2908C7.03125 17.3526 5.49567 17.3526 4.88002 16.2908L3.72884 14.3055C3.17708 13.3539 1.95506 13.0279 0.999384 13.5773Z" fill="url(#paint1_linear_138_1829)"/>
</g>
<defs>
<linearGradient id="paint0_linear_138_1829" x1="5.03699" y1="16.7861" x2="18.1314" y2="8.61585" gradientUnits="userSpaceOnUse">
<stop stop-color="#3A4B82"/>
<stop offset="1" stop-color="#8A94B2"/>
</linearGradient>
<linearGradient id="paint1_linear_138_1829" x1="2.26881" y1="19.7458" x2="11.2273" y2="14.9675" gradientUnits="userSpaceOnUse">
<stop stop-color="#FF5555"/>
<stop offset="1" stop-color="#FFA582"/>
</linearGradient>
<clipPath id="clip0_138_1829">
<rect width="213.517" height="24.5958" fill="white"/>
</clipPath>
</defs>
</svg>
